<svg width="35" height="35" xmlns="http://www.w3.org/2000/svg">
 <g>
  <title>background</title>
  <rect x="-1" y="-1" width="37" height="37" id="canvas_background" fill="none"/>
 </g>

 <g>
  <title>Layer 1</title>
  <g id="svg_logo" fill="#338D6D">
   <path id="svg_9" d="m30.664999,1.330001l0,0l0,0q0,0.17 -0.65,1.2l0,0l0,0q-0.65,1.03001 -1.66,2.54001l0,0l0,0q-1.01,1.51 -2.18,3.25l0,0l0,0q-1.18,1.75 -2.27,3.31999l0,0l0,0q-1.09,1.58 -1.91,2.73001l0,0l0,0q-0.82,1.15999 -1.07,1.48999l0,0l0,0q-0.17,0.3 -0.55,0.3l0,0l0,0q-0.38,0 -0.63,-0.34l0,0l-10.08,-14.03l0,0q-0.12,-0.12 -0.12,-0.33l0,0l0,0q0,-0.3 0.23,-0.49l0,0l0,0q0.23,-0.19 0.48,-0.19l0,0l0,0q0.25,0 0.46,0.26001l0,0l9.62,13.34999l9.11,-13.4l0,0q0.17,-0.29 0.55,-0.29l0,0l0,0q0.25,0 0.46,0.19l0,0l0,0q0.21,0.19 0.21,0.44m-9.83,20.96l0,11.38l0,0q0,0.25 -0.18,0.44l0,0l0,0q-0.19,0.19 -0.45,0.19l0,0l0,0q-0.25,0 -0.44,-0.19l0,0l0,0q-0.19,-0.19 -0.19,-0.44l0,0l0,-11.17l0,0q-0.33,-0.46 -1.59,-2.17l0,0l0,0q-1.26,-1.7 -2.96,-4.01l0,0l0,0q-1.7,-2.31 -3.57,-4.89l0,0l0,0q-1.87,-2.58 -3.47,-4.79l0,0l0,0q-1.59,-2.2 -2.62,-3.69l0,0l0,0q-1.03,-1.49 -1.03,-1.66l0,0l0,0q0,-0.25 0.23,-0.42l0,0l0,0q0.23,-0.17 0.48,-0.17l0,0l0,0q0.3,0 0.51,0.25l0,0l15.16,20.96l0,0q0.12,0.21 0.12,0.38l0,0z"/>
   <!---->
  </g>
 </g>
</svg>