<svg width="30" height="30" xmlns="http://www.w3.org/2000/svg">
 <g>
  <title>background</title>
  <rect x="-1" y="-1" width="32" height="32" id="canvas_background" fill="none"/>
 </g>

 <g>
  <title>Layer 1</title>
  <g stroke="null" id="svg_logo" fill="#338D6D">
   <path stroke="null" id="svg_9" d="m24.665,3.128898l0,0l0,0q0,0.124804 -0.477193,0.880972l0,0l0,0q-0.477193,0.756175 -1.218678,1.864732l0,0l0,0q-0.741485,1.108557 -1.600433,2.385967l0,0l0,0q-0.866289,1.284751 -1.666506,2.437349l0,0l0,0q-0.800216,1.159947 -1.402214,2.004219l0,0l0,0q-0.601998,0.851599 -0.785534,1.093867l0,0l0,0q-0.124804,0.220243 -0.403779,0.220243l0,0l0,0q-0.278975,0 -0.46251,-0.249609l0,0l-7.400167,-10.300034l0,0q-0.088097,-0.088097 -0.088097,-0.242267l0,0l0,0q0,-0.220243 0.168853,-0.35973l0,0l0,0q0.168853,-0.139487 0.352389,-0.139487l0,0l0,0q0.183536,0 0.337706,0.190885l0,0l7.062461,9.800809l6.688048,-9.837524l0,0q0.124804,-0.212902 0.403779,-0.212902l0,0l0,0q0.183536,0 0.337706,0.139487l0,0l0,0q0.15417,0.139487 0.15417,0.323023m-7.216631,15.387649l0,8.354554l0,0q0,0.183536 -0.132146,0.323023l0,0l0,0q-0.139487,0.139487 -0.330365,0.139487l0,0l0,0q-0.183536,0 -0.323023,-0.139487l0,0l0,0q-0.139487,-0.139487 -0.139487,-0.323023l0,0l0,-8.200384l0,0q-0.242267,-0.337706 -1.167288,-1.593092l0,0l0,0q-0.925021,-1.248044 -2.173065,-2.943916l0,0l0,0q-1.248044,-1.695872 -2.620892,-3.589962l0,0l0,0q-1.372848,-1.89409 -2.547478,-3.516548l0,0l0,0q-1.167288,-1.615116 -1.923456,-2.70899l0,0l0,0q-0.756168,-1.093874 -0.756168,-1.218678l0,0l0,0q0,-0.183536 0.168853,-0.30834l0,0l0,0q0.168853,-0.124804 0.352389,-0.124804l0,0l0,0q0.220243,0 0.374413,0.183536l0,0l11.129616,15.387649l0,0q0.088097,0.15417 0.088097,0.278975l0,0z"/>
   <!---->
  </g>
 </g>
</svg>